<?xml version="1.0" encoding="UTF-8" standalone="no"?>
<svg width="501px" height="505px" viewBox="0 0 501 505" version="1.1" xmlns="http://www.w3.org/2000/svg" xmlns:xlink="http://www.w3.org/1999/xlink" xmlns:sketch="http://www.bohemiancoding.com/sketch/ns">
    <!-- Generator: Sketch 3.1.1 (8761) - http://www.bohemiancoding.com/sketch -->
    <title>palette</title>
    <desc>Created with Sketch.</desc>
    <defs></defs>
    <g id="Page-1" stroke="none" stroke-width="1" fill="none" fill-rule="evenodd" sketch:type="MSPage">
        <path d="M179.413627,504.563182 C247.601356,508.207644 323.800182,480.667291 387.67145,422.8996 C502.927506,320.064988 536.172526,160.384327 459.782677,66.2428661 C382.537791,-27.8985929 224.39512,-20.851395 108.483166,81.9832191 C14.7755776,166.144047 -20.9064392,288.380022 11.9781096,381.603725 C28.2828941,371.949873 47.0524451,366.451632 67.0269591,366.451632 C129.720198,366.451632 180.54311,420.615881 180.54311,487.430868 C180.54311,493.246612 180.158055,498.966509 179.413634,504.563182 L179.413627,504.563182 Z M172.5,370 C208.122366,370 237,341.122366 237,305.5 C237,269.877634 208.122366,241 172.5,241 C136.877634,241 108,269.877634 108,305.5 C108,341.122366 136.877634,370 172.5,370 Z M170.5,157 C191.210678,157 208,140.210678 208,119.5 C208,98.7893219 191.210678,82 170.5,82 C149.789322,82 133,98.7893219 133,119.5 C133,140.210678 149.789322,157 170.5,157 Z M274.5,105 C295.210678,105 312,88.2106781 312,67.5 C312,46.7893219 295.210678,30 274.5,30 C253.789322,30 237,46.7893219 237,67.5 C237,88.2106781 253.789322,105 274.5,105 Z M380.5,131 C401.210678,131 418,114.210678 418,93.5 C418,72.7893219 401.210678,56 380.5,56 C359.789322,56 343,72.7893219 343,93.5 C343,114.210678 359.789322,131 380.5,131 Z M433.5,236 C454.210678,236 471,219.210678 471,198.5 C471,177.789322 454.210678,161 433.5,161 C412.789322,161 396,177.789322 396,198.5 C396,219.210678 412.789322,236 433.5,236 Z M407.5,341 C428.210678,341 445,324.210678 445,303.5 C445,282.789322 428.210678,266 407.5,266 C386.789322,266 370,282.789322 370,303.5 C370,324.210678 386.789322,341 407.5,341 Z" id="palette" fill="#000000" sketch:type="MSShapeGroup"></path>
    </g>
</svg>