<?xml version="1.0" encoding="UTF-8" standalone="no"?>
<svg width="365px" height="513px" viewBox="0 0 365 513" version="1.1" xmlns="http://www.w3.org/2000/svg" xmlns:xlink="http://www.w3.org/1999/xlink" xmlns:sketch="http://www.bohemiancoding.com/sketch/ns">
    <!-- Generator: Sketch 3.1.1 (8761) - http://www.bohemiancoding.com/sketch -->
    <title>rock</title>
    <desc>Created with Sketch.</desc>
    <defs></defs>
    <g id="Page-1" stroke="none" stroke-width="1" fill="none" fill-rule="evenodd" sketch:type="MSPage">
        <path d="M287,57.6367341 C291.025745,40.0909168 306.73474,27 325.5,27 C347.320044,27 365,44.6883672 365,66.508074 L365,345.491926 C365,349.839085 364.297795,354.022503 363.00063,357.934826 C349.906535,445.389401 274.080903,512.476116 182.5,512.476116 C81.7080332,512.476116 -2.27373675e-13,431.215798 -2.27373675e-13,330.976116 C-2.27373675e-13,329.676589 0.060709622,328.454418 0.180571141,327.306476 C0.0611074721,326.055412 -2.27373675e-13,324.78732 -2.27373675e-13,323.504953 L-2.27373675e-13,311.059967 L-2.27373675e-13,311.059967 C6.99738167,299.357089 19.9665396,291.5 34.8091492,291.5 L129.722601,291.5 C151.9938,291.5 170.0367,309.184752 170.0367,331 C170.0367,352.820044 151.987463,370.5 129.722601,370.5 L123.10708,370.5 L123.10708,392 L130.747106,392 C165.128428,392 192.999997,364.696777 192.999997,331 C192.999997,329.384015 192.935875,327.782707 192.809988,326.198386 C202.791397,334.79977 215.787062,340 230,340 C261.480231,340 287,314.472336 287,282.994112 L287,57.6367341 L287,57.6367341 L287,57.6367341 Z M173,151.621686 C168.974779,134.082102 153.26901,121 134.5,121 C112.684752,121 95,138.683685 95,160.491551 L95,270 L130.747106,270 C147.102858,270 161.984393,276.179556 173.093411,286.285742 C173.031419,285.196437 173,284.098945 173,282.994112 L173,151.621686 L173,151.621686 L173,151.621686 Z M-2.27373675e-13,279.120312 L-2.27373675e-13,39.4950467 C-2.27373675e-13,17.6923995 17.6847524,0 39.5,0 C61.3200442,0 79,17.6825347 79,39.4950467 L78.8939626,270 L32.7640537,270 C20.7424293,270 9.51668144,273.338067 -2.56283056e-06,279.120343 L-2.27373675e-13,279.120312 L-2.27373675e-13,279.120312 Z M231.49761,124 C211.892821,124 196,139.896426 196,159.497939 L196,282.502061 C196,302.107031 211.884912,318 231.49761,318 L233.50239,318 C253.107179,318 269,302.103574 269,282.502061 L269,159.497939 C269,139.892969 253.115088,124 233.50239,124 L231.49761,124 Z" id="rock" fill="#000000" sketch:type="MSShapeGroup"></path>
    </g>
</svg>