<?xml version="1.0" encoding="UTF-8" standalone="no"?>
<svg width="556px" height="556px" viewBox="0 0 556 556" version="1.1" xmlns="http://www.w3.org/2000/svg" xmlns:xlink="http://www.w3.org/1999/xlink" xmlns:sketch="http://www.bohemiancoding.com/sketch/ns">
    <!-- Generator: Sketch 3.1.1 (8761) - http://www.bohemiancoding.com/sketch -->
    <title>smile</title>
    <desc>Created with Sketch.</desc>
    <defs></defs>
    <g id="Page-1" stroke="none" stroke-width="1" fill="none" fill-rule="evenodd" sketch:type="MSPage">
        <path d="M278,556 C431.53516,556 556,431.53516 556,278 C556,124.46484 431.53516,0 278,0 C124.46484,0 0,124.46484 0,278 C0,431.53516 124.46484,556 278,556 Z M210.40625,342.183594 C247.039064,362 306.878907,356.78125 344.805072,342.183594 C369.980699,332.493578 383.867276,335.670588 373.425776,362 C324.082027,486.425787 202.789062,444.539061 184.650882,362 C178.867506,335.682342 196.54737,334.686676 210.40625,342.183594 Z M180,312 C198.777681,312 214,296.777681 214,278 C214,259.222319 198.777681,244 180,244 C161.222319,244 146,259.222319 146,278 C146,296.777681 161.222319,312 180,312 Z M377,311 C395.777681,311 411,295.777681 411,277 C411,258.222319 395.777681,243 377,243 C358.222319,243 343,258.222319 343,277 C343,295.777681 358.222319,311 377,311 Z" id="smile" fill="#000000" sketch:type="MSShapeGroup"></path>
    </g>
</svg>